<?xml version="1.0" encoding="utf-8"?>
<!-- Generator: Adobe Illustrator 17.0.0, SVG Export Plug-In . SVG Version: 6.00 Build 0)  -->
<!DOCTYPE svg PUBLIC "-//W3C//DTD SVG 1.1//EN" "http://www.w3.org/Graphics/SVG/1.1/DTD/svg11.dtd">
<svg version="1.1" id="Layer_1" xmlns="http://www.w3.org/2000/svg" xmlns:xlink="http://www.w3.org/1999/xlink" x="0px" y="0px"
	 width="286.801px" height="114.504px" viewBox="0 0 286.801 114.504" enable-background="new 0 0 286.801 114.504"
	 xml:space="preserve">
<g>
	<g>
		<linearGradient id="SVGID_1_" gradientUnits="userSpaceOnUse" x1="71.2383" y1="119.6499" x2="105.5541" y2="45.4">
			<stop  offset="0" style="stop-color:#0CA300"/>
			<stop  offset="1" style="stop-color:#9ED100"/>
		</linearGradient>
		<path fill="url(#SVGID_1_)" d="M0,8.082c0,0,167.933-49.997,199.982,98.708C199.982,106.79,19.229,155.505,0,8.082z"/>
	</g>
	<g>
		<path fill="#8CC63F" d="M202.238,60.402l-3.221,9.754h-4.141l10.583-31.013h4.785l10.583,31.013h-4.28l-3.313-9.754H202.238z
			 M212.452,57.272l-3.083-8.926c-0.691-2.025-1.15-3.864-1.611-5.66h-0.092c-0.46,1.795-0.92,3.727-1.564,5.614l-3.037,8.972
			H212.452z"/>
		<path fill="#8CC63F" d="M243.738,66.89c0,5.152-1.058,8.236-3.175,10.214c-2.209,1.979-5.338,2.669-8.144,2.669
			c-2.669,0-5.613-0.644-7.408-1.841l1.012-3.129c1.472,0.968,3.773,1.795,6.534,1.795c4.141,0,7.178-2.163,7.178-7.822v-2.44
			h-0.092c-1.196,2.071-3.635,3.727-7.086,3.727c-5.522,0-9.478-4.692-9.478-10.858c0-7.546,4.923-11.778,10.077-11.778
			c3.865,0,5.936,1.978,6.948,3.819h0.092l0.138-3.359h3.589c-0.138,1.564-0.184,3.404-0.184,6.073V66.89z M239.688,56.675
			c0-0.69-0.046-1.288-0.23-1.794c-0.736-2.393-2.669-4.326-5.66-4.326c-3.865,0-6.626,3.267-6.626,8.42
			c0,4.373,2.254,8.007,6.579,8.007c2.531,0,4.786-1.564,5.614-4.141c0.23-0.69,0.322-1.472,0.322-2.162V56.675z"/>
		<path fill="#8CC63F" d="M250.13,54.834c0-2.623-0.046-4.878-0.184-6.948h3.543l0.184,4.417h0.138
			c1.013-2.991,3.497-4.877,6.212-4.877c0.414,0,0.736,0.045,1.104,0.091v3.819c-0.414-0.091-0.828-0.091-1.38-0.091
			c-2.853,0-4.877,2.116-5.43,5.153c-0.092,0.552-0.138,1.242-0.138,1.886v11.872h-4.049V54.834z"/>
		<path fill="#8CC63F" d="M269.867,41.629c0,1.381-0.967,2.484-2.577,2.484c-1.472,0-2.438-1.103-2.438-2.484
			c0-1.381,1.012-2.531,2.53-2.531C268.855,39.098,269.867,40.202,269.867,41.629z M265.358,70.156v-22.27h4.049v22.27H265.358z"/>
		<path fill="#8CC63F" d="M286.801,38.777c0,3.417-2.747,6.127-6.238,6.127c-3.491,0-6.276-2.71-6.276-6.127
			c0-3.417,2.785-6.09,6.313-6.09C284.053,32.687,286.801,35.36,286.801,38.777z M275.846,38.777c0,2.71,2.042,4.864,4.753,4.864
			c2.636,0.038,4.642-2.154,4.642-4.827c0-2.711-2.005-4.902-4.716-4.902C277.889,33.913,275.846,36.103,275.846,38.777z
			 M279.597,41.934h-1.411v-6.09c0.557-0.073,1.337-0.186,2.339-0.186c1.151,0,1.671,0.186,2.079,0.484
			c0.371,0.259,0.631,0.704,0.631,1.299c0,0.743-0.557,1.226-1.262,1.448v0.074c0.594,0.187,0.891,0.669,1.077,1.485
			c0.186,0.929,0.334,1.262,0.446,1.485h-1.485c-0.185-0.224-0.297-0.741-0.483-1.485c-0.111-0.63-0.482-0.929-1.262-0.929h-0.668
			V41.934z M279.634,38.518h0.669c0.78,0,1.411-0.26,1.411-0.891c0-0.558-0.408-0.928-1.3-0.928c-0.371,0-0.631,0.036-0.78,0.073
			V38.518z"/>
	</g>
	<g>
		<path fill="#FFFFFF" d="M36.112,60.57c1.797,0.921,4.559,1.84,7.408,1.84c3.069,0,4.69-1.271,4.69-3.2
			c0-1.84-1.403-2.893-4.953-4.163c-4.909-1.71-8.109-4.427-8.109-8.723c0-5.041,4.208-8.898,11.177-8.898
			c3.331,0,5.786,0.701,7.539,1.49l-1.491,5.391c-1.183-0.569-3.287-1.403-6.18-1.403c-2.893,0-4.295,1.315-4.295,2.85
			c0,1.884,1.665,2.716,5.479,4.163c5.216,1.929,7.671,4.647,7.671,8.81c0,4.954-3.814,9.162-11.923,9.162
			c-3.375,0-6.706-0.878-8.372-1.797L36.112,60.57z"/>
		<path fill="#FFFFFF" d="M66.238,40.055c0,1.842-1.403,3.332-3.594,3.332c-2.104,0-3.507-1.49-3.463-3.332
			c-0.044-1.927,1.359-3.375,3.507-3.375C64.835,36.681,66.194,38.128,66.238,40.055z M59.356,67.451V46.017h6.663v21.434H59.356z"
			/>
		<path fill="#FFFFFF" d="M71.372,52.856c0-2.675-0.087-4.954-0.175-6.838h5.611l0.307,2.893h0.132
			c0.92-1.358,2.805-3.375,6.487-3.375c2.762,0,4.953,1.403,5.873,3.637h0.088c0.789-1.096,1.753-1.972,2.762-2.586
			c1.183-0.701,2.498-1.051,4.076-1.051c4.12,0,7.232,2.893,7.232,9.292v12.624h-6.487v-11.66c0-3.112-1.008-4.909-3.156-4.909
			c-1.534,0-2.63,1.053-3.068,2.323c-0.176,0.482-0.263,1.183-0.263,1.71v12.536h-6.487v-12.01c0-2.718-0.964-4.56-3.068-4.56
			c-1.71,0-2.718,1.315-3.112,2.411c-0.219,0.526-0.263,1.14-0.263,1.667v12.492h-6.487V52.856z"/>
		<path fill="#FFFFFF" d="M109.089,53.205c0-2.805-0.087-5.216-0.175-7.188h5.786l0.307,2.98h0.088
			c1.578-2.279,4.032-3.462,7.144-3.462c4.69,0,8.898,4.076,8.898,10.914c0,7.802-4.953,11.484-9.731,11.484
			c-2.586,0-4.603-1.051-5.567-2.454h-0.088v10.65h-6.663V53.205z M115.751,58.247c0,0.526,0.044,1.008,0.132,1.403
			c0.438,1.797,1.972,3.155,3.901,3.155c2.893,0,4.602-2.411,4.602-6.048c0-3.419-1.534-6.005-4.514-6.005
			c-1.885,0-3.551,1.403-3.989,3.375c-0.087,0.352-0.132,0.789-0.132,1.183V58.247z"/>
		<path fill="#FFFFFF" d="M135.315,36.331h6.663v31.121h-6.663V36.331z"/>
		<path fill="#FFFFFF" d="M152.504,58.861c0.219,2.761,2.937,4.076,6.049,4.076c2.279,0,4.12-0.307,5.918-0.876l0.877,4.515
			c-2.192,0.876-4.866,1.315-7.758,1.315c-7.276,0-11.441-4.208-11.441-10.914c0-5.436,3.375-11.441,10.827-11.441
			c6.926,0,9.555,5.391,9.555,10.695c0,1.14-0.131,2.149-0.219,2.63H152.504z M160.35,54.301c0-1.622-0.701-4.338-3.769-4.338
			c-2.805,0-3.945,2.541-4.121,4.338H160.35z"/>
	</g>
</g>
</svg>
